#N canvas 243 123 553 681 12;
#X obj 222 294 t f f;
#X obj 222 508 spigot;
#X obj 227 106 loadbang;
#X obj 255 331 -;
#X obj 255 355 abs;
#X obj 255 403 sel 1;
#X floatatom 222 269 5 0 0 0 - - - 0;
#X obj 255 379 < 0.01;
#X obj 105 128 inlet;
#X obj 235 536 s \$0-curval;
#X obj 290 457 r \$0-latched;
#X obj 273 305 r \$0-curval;
#X obj 273 183 s \$0-curval;
#X obj 105 269 s \$0-latched;
#X obj 261 484 tgl 19 0 empty empty empty 0 -10 0 12 #fcfcfc #000000 #000000 0 1;
#X msg 255 427 1;
#X floatatom 222 562 5 0 0 0 - - - 0;
#X obj 222 585 outlet;
#X msg 105 245 0;
#X text 25 26 preserve current value until knob (input) value comes within 0.01 of current to avoid jumps with analog inputs, f 24;
#X obj 222 244 change;
#X obj 227 155 t b f f;
#X obj 227 130 f \$1;
#X text 290 153 set initial value and unlatch;
#X text 274 246 filter repeats (useful for init), f 17;
#X obj 105 156 sel unlatch;
#X connect 0 0 1 0;
#X connect 0 1 3 0;
#X connect 1 0 9 0;
#X connect 1 0 16 0;
#X connect 2 0 22 0;
#X connect 3 0 4 0;
#X connect 4 0 7 0;
#X connect 5 0 15 0;
#X connect 6 0 0 0;
#X connect 7 0 5 0;
#X connect 8 0 25 0;
#X connect 10 0 14 0;
#X connect 11 0 3 1;
#X connect 14 0 1 1;
#X connect 15 0 14 0;
#X connect 16 0 17 0;
#X connect 18 0 13 0;
#X connect 20 0 6 0;
#X connect 21 0 18 0;
#X connect 21 1 20 0;
#X connect 21 2 12 0;
#X connect 22 0 21 0;
#X connect 25 0 18 0;
#X connect 25 1 20 0;
