#N canvas 931 601 375 389 12;
#X obj 14 64 t f f;
#X obj 14 278 spigot;
#X obj 181 12 loadbang;
#X obj 47 101 -;
#X obj 47 125 abs;
#X obj 47 173 sel 1;
#X floatatom 14 39 5 0 0 0 - - - 0;
#X obj 47 149 < 0.01;
#X obj 14 16 inlet;
#X obj 27 306 s \$0-curval;
#X obj 82 227 r \$0-latched;
#X obj 181 36 t b b;
#X obj 65 75 r \$0-curval;
#X obj 273 60 f \$1;
#X obj 273 84 s \$0-curval;
#X obj 181 111 s \$0-latched;
#X obj 53 254 tgl 19 0 empty empty empty 0 -10 0 12 #fcfcfc #000000 #000000 0 1;
#X msg 47 197 1;
#X floatatom 14 332 5 0 0 0 - - - 0;
#X obj 14 355 outlet;
#X msg 181 87 0;
#X text 191 137 unlatch after short delay so that initial value send on load doesn't inadvertently latch, f 18;
#X obj 181 63 del 100;
#X connect 0 0 1 0;
#X connect 0 1 3 0;
#X connect 1 0 9 0;
#X connect 1 0 18 0;
#X connect 2 0 11 0;
#X connect 3 0 4 0;
#X connect 4 0 7 0;
#X connect 5 0 17 0;
#X connect 6 0 0 0;
#X connect 7 0 5 0;
#X connect 8 0 6 0;
#X connect 10 0 16 0;
#X connect 11 0 22 0;
#X connect 11 1 13 0;
#X connect 12 0 3 1;
#X connect 13 0 14 0;
#X connect 16 0 1 1;
#X connect 17 0 16 0;
#X connect 18 0 19 0;
#X connect 20 0 15 0;
#X connect 22 0 20 0;
