#N canvas 396 436 318 338 12;
#X obj 88 220 tgl 15 0 empty empty empty 17 7 0 10 #fcfcfc #000000 #000000 0 1;
#X obj 108 57 unpack f f;
#X floatatom 127 134 5 0 0 0 - - - 0;
#X obj 88 154 spigot;
#X obj 88 176 route 100 0;
#X obj 88 199 bng 15 250 50 0 empty empty empty 17 7 0 10 #fcfcfc #000000 #000000;
#X obj 74 129 pipe 1;
#X obj 88 240 == 1;
#X floatatom 88 267 5 0 0 0 - - - 0;
#X obj 108 29 inlet;
#X obj 200 40 loadbang;
#X obj 200 62 i \$1;
#X obj 127 112 ==;
#X obj 90 292 outlet;
#X text 22 2 note down toggles the value;
#X connect 0 0 7 0;
#X connect 1 0 12 0;
#X connect 1 1 6 0;
#X connect 2 0 3 1;
#X connect 3 0 4 0;
#X connect 4 0 5 0;
#X connect 5 0 0 0;
#X connect 6 0 3 0;
#X connect 7 0 8 0;
#X connect 8 0 13 0;
#X connect 9 0 1 0;
#X connect 10 0 11 0;
#X connect 11 0 12 1;
#X connect 12 0 2 0;
