#N canvas 1056 486 381 445 12;
#X obj 103 390 outlet~;
#X obj 167 390 outlet~;
#X obj 236 390 outlet;
#X obj 73 40 inlet;
#X obj 137 40 inlet~;
#X obj 208 40 inlet~;
#X obj 146 305 looper~ \$1;
#X connect 3 0 6 0;
#X connect 4 0 6 0;
#X connect 5 0 6 1;
#X connect 6 0 0 0;
#X connect 6 1 1 0;
#X connect 6 2 2 0;
