#N canvas 1477 567 351 400 12;
#X obj 24 21 inlet;
#X obj 182 21 inlet~;
#X obj 231 21 inlet~;
#X obj 131 329 outlet~;
#X obj 170 303 outlet~;
#X obj 131 193 *~;
#X obj 170 193 *~, f 2;
#X msg 24 111 \$1 20;
#X obj 24 141 line~;
#X obj 205 168 - 1;
#X obj 205 192 abs;
#X msg 205 216 \$1 20;
#X obj 205 238 line~;
#X obj 131 275 *~;
#X obj 170 275 *~;
#X obj 235 168 loadbang;
#X msg 235 192 1;
#X obj 24 81 route volume mute;
#X obj 24 51 list trim;
#X text 22 213 handle volume and mute messages for a stereo input, f 13;
#X connect 0 0 18 0;
#X connect 1 0 5 0;
#X connect 2 0 6 0;
#X connect 5 0 13 0;
#X connect 6 0 14 0;
#X connect 7 0 8 0;
#X connect 8 0 5 1;
#X connect 8 0 6 1;
#X connect 9 0 10 0;
#X connect 10 0 11 0;
#X connect 11 0 12 0;
#X connect 12 0 13 1;
#X connect 12 0 14 1;
#X connect 13 0 3 0;
#X connect 14 0 4 0;
#X connect 15 0 16 0;
#X connect 16 0 11 0;
#X connect 17 0 7 0;
#X connect 17 1 9 0;
#X connect 18 0 17 0;
