#N canvas 630 127 652 470 12;
#X obj 24 21 inlet;
#X obj 105 176 inlet~;
#X obj 154 176 inlet~;
#X obj 126 380 outlet~;
#X obj 165 354 outlet~;
#X obj 126 244 *~;
#X obj 165 244 *~, f 2;
#X msg 24 111 \$1 20;
#X obj 24 141 line~;
#X obj 228 191 - 1;
#X obj 228 215 abs;
#X msg 228 239 \$1 20;
#X obj 228 261 line~;
#X obj 126 326 *~;
#X obj 165 326 *~;
#X obj 24 81 route volume mute;
#X obj 24 51 list trim;
#X text 17 264 handle volume and mute messages for a stereo input, f 13;
#X obj 474 385 outlet;
#X obj 474 199 * 100;
#X obj 474 221 i;
#X msg 382 321 Volume: \$1%;
#X obj 474 261 spigot;
#X obj 382 240 - 1;
#X obj 382 264 abs;
#X obj 382 294 spigot;
#X msg 474 285 Volume: \$1% (M);
#X obj 381 189 t b f;
#X text 390 160 volume/muting display;
#X text 522 199 volume;
#X obj 228 117 tgl 19 0 empty empty empty 0 -10 0 12 #fcfcfc #000000 #000000 0 1;
#X msg 228 81 0;
#X obj 228 52 loadbang;
#X connect 0 0 16 0;
#X connect 1 0 5 0;
#X connect 2 0 6 0;
#X connect 5 0 13 0;
#X connect 6 0 14 0;
#X connect 7 0 8 0;
#X connect 8 0 5 1;
#X connect 8 0 6 1;
#X connect 9 0 10 0;
#X connect 10 0 11 0;
#X connect 11 0 12 0;
#X connect 12 0 13 1;
#X connect 12 0 14 1;
#X connect 13 0 3 0;
#X connect 14 0 4 0;
#X connect 15 0 7 0;
#X connect 15 0 19 0;
#X connect 15 1 30 0;
#X connect 16 0 15 0;
#X connect 19 0 20 0;
#X connect 20 0 25 0;
#X connect 20 0 22 0;
#X connect 21 0 18 0;
#X connect 22 0 26 0;
#X connect 23 0 24 0;
#X connect 24 0 25 1;
#X connect 25 0 21 0;
#X connect 26 0 18 0;
#X connect 27 0 20 0;
#X connect 27 1 22 1;
#X connect 27 1 23 0;
#X connect 30 0 9 0;
#X connect 30 0 27 0;
#X connect 31 0 30 0;
#X connect 32 0 31 0;
