#N canvas 310 129 760 572 12;
#X obj 45 15 r knob1;
#X floatatom 48 41 5 0 0 0 - - - 0;
#X floatatom 105 37 5 0 0 0 - - - 0;
#X floatatom 165 37 5 0 0 0 - - - 0;
#X floatatom 225 37 5 0 0 0 - - - 0;
#X obj 105 15 r knob2;
#X obj 165 15 r knob3;
#X obj 225 15 r knob4;
#X obj 44 99 r aux;
#X obj 87 99 r fs;
#X obj 330 170 tgl 15 0 empty empty empty 17 7 0 10 #fcfcfc #000000 #000000 0 1;
#X obj 369 18 r notes;
#X obj 369 40 unpack f f;
#X floatatom 369 84 5 0 0 0 - - - 0;
#X obj 330 104 spigot;
#X obj 330 126 route 100 0;
#X obj 330 149 bng 15 250 50 0 empty empty empty 17 7 0 10 #fcfcfc #000000 #000000;
#X obj 316 79 pipe 1;
#X obj 330 190 == 1;
#X floatatom 330 217 5 0 0 0 - - - 0;
#X floatatom 44 128 5 0 0 0 - - - 0;
#X obj 44 156 sel 1;
#X msg 44 185 start;
#X obj 369 62 == 83;
#X obj 93 310 throw~ outL;
#X obj 93 332 throw~ outR;
#X obj 183 311 vumeter;
#X obj 247 311 vumeter;
#X msg 44 223 stop;
#X msg 44 247 clear;
#X obj 155 233 r~ inL;
#X obj 204 233 r~ inR;
#X text 430 18 notes 60-83 on Organelle;
#X obj 156 273 looper~ 60;
#X obj 448 251 loadbang;
#X obj 337 331 bng 19 250 50 0 empty empty empty 0 -10 0 12 #fcfcfc #000000 #000000;
#X obj 409 331 bng 19 250 50 0 empty empty empty 0 -10 0 12 #fcfcfc #000000 #000000;
#X obj 481 331 bng 19 250 50 0 empty empty empty 0 -10 0 12 #fcfcfc #000000 #000000;
#X msg 448 273 symbol stopped;
#X obj 337 307 sel recording playing;
#X obj 337 418 s screenLine5;
#X msg 337 385 Recording;
#X msg 414 385 Playing;
#X msg 478 385 Stopped;
#X obj 561 400 s led;
#X msg 551 371 1;
#X msg 598 371 2;
#X msg 640 371 0;
#X connect 0 0 1 0;
#X connect 5 0 2 0;
#X connect 6 0 3 0;
#X connect 7 0 4 0;
#X connect 8 0 20 0;
#X connect 9 0 20 0;
#X connect 10 0 18 0;
#X connect 11 0 12 0;
#X connect 12 0 23 0;
#X connect 12 1 17 0;
#X connect 13 0 14 1;
#X connect 14 0 15 0;
#X connect 15 0 16 0;
#X connect 16 0 10 0;
#X connect 17 0 14 0;
#X connect 18 0 19 0;
#X connect 20 0 21 0;
#X connect 21 0 22 0;
#X connect 22 0 33 0;
#X connect 23 0 13 0;
#X connect 28 0 33 0;
#X connect 29 0 33 0;
#X connect 30 0 33 0;
#X connect 30 0 24 0;
#X connect 31 0 33 1;
#X connect 31 0 25 0;
#X connect 33 0 24 0;
#X connect 33 0 26 0;
#X connect 33 0 27 0;
#X connect 33 1 25 0;
#X connect 33 2 39 0;
#X connect 34 0 38 0;
#X connect 35 0 41 0;
#X connect 35 0 45 0;
#X connect 36 0 42 0;
#X connect 36 0 46 0;
#X connect 37 0 43 0;
#X connect 37 0 47 0;
#X connect 38 0 39 0;
#X connect 39 0 35 0;
#X connect 39 1 36 0;
#X connect 39 2 37 0;
#X connect 41 0 40 0;
#X connect 42 0 40 0;
#X connect 43 0 40 0;
#X connect 45 0 44 0;
#X connect 46 0 44 0;
#X connect 47 0 44 0;
