#N canvas 105 46 1764 910 12;
#X obj 593 40 r knob1;
#X floatatom 593 62 5 0 0 0 - - - 0;
#X floatatom 735 61 5 0 0 0 - - - 0;
#X obj 735 39 r knob2;
#X obj 1046 19 r notes;
#X obj 219 469 vumeter;
#X obj 283 469 vumeter;
#X obj 191 359 r~ inL;
#X obj 240 359 r~ inR;
#X obj 1187 529 loadbang;
#X obj 1191 635 bng 19 250 50 0 empty empty empty 0 -10 0 12 #fcfcfc #000000 #000000;
#X obj 1289 632 bng 19 250 50 0 empty empty empty 0 -10 0 12 #fcfcfc #000000 #000000;
#X obj 1395 645 bng 19 250 50 0 empty empty empty 0 -10 0 12 #fcfcfc #000000 #000000;
#X msg 1187 551 symbol stopped;
#X obj 1289 679 s led;
#X msg 1289 655 1;
#X msg 1191 658 2;
#X msg 1508 651 0;
#X obj 52 542 throw~ outL;
#X obj 85 519 throw~ outR;
#X text 1108 18 mute;
#X obj 1179 574 route list symbol;
#X obj 1179 606 route playing recording;
#X obj 1179 703 makefilename Playing\ -%.1fs;
#X obj 1228 726 makefilename Recording\ -%.1fs;
#X obj 1191 681 s led;
#X obj 1508 675 s led;
#X obj 1253 70 ktrig 66;
#X obj 1253 171 v \$0-clear-state;
#X obj 1253 195 sel 0 1;
#X msg 1112 340 clear CONFIRM?;
#X obj 1112 364 s screenLine5;
#X msg 1283 251 1;
#X obj 1283 275 v \$0-clear-state;
#X obj 1253 346 delay 4000;
#X obj 1253 323 bng 19 250 50 0 empty empty empty 0 -10 0 12 #fcfcfc #000000 #000000;
#X msg 1253 370 0;
#X obj 1253 394 v \$0-clear-state;
#X msg 1467 268 clearing!;
#X obj 1467 292 s screenLine5;
#X msg 1446 342 0;
#X obj 1446 366 v \$0-clear-state;
#X msg 1427 268 stop;
#X msg 1507 318 clear;
#X obj 1427 242 t b b b b b;
#X obj 1582 262 delay 1000;
#X obj 593 85 klatch 1;
#X floatatom 593 109 5 0 0 0 - - - 0;
#X obj 1395 599 list trim;
#X obj 1395 623 route stopped;
#X text 1326 496 status display;
#X text 598 14 knobs (volume control);
#X obj 1382 71 list split 1;
#X obj 1382 95 sel stopped;
#X msg 1382 119 1;
#X msg 1456 119 0;
#X obj 1382 143 tgl 19 0 empty empty empty 0 -10 0 12 #fcfcfc #000000 #000000 0 1;
#X obj 1253 148 spigot;
#X obj 1046 47 ktrig 63;
#X obj 110 49 r notes;
#X obj 110 93 ktrig 60;
#X obj 174 93 ktrig 62;
#X text 1258 19 clear loop;
#X obj 1253 44 r notes;
#X msg 110 117 1;
#X msg 174 117 2;
#X obj 427 45 r aux;
#X obj 470 45 r fs;
#X floatatom 427 74 5 0 0 0 - - - 0;
#X obj 427 102 sel 1;
#X msg 427 129 start;
#X text 423 16 record button;
#X text 16 21 route controls between looper instances;
#X obj 38 93 loadbang;
#X obj 449 544 throw~ outL;
#X obj 482 521 throw~ outR;
#X obj 616 467 vumeter;
#X obj 683 467 vumeter;
#X obj 590 359 r~ inL;
#X obj 640 359 r~ inR;
#X obj 1534 91 throw~ outL;
#X obj 1630 91 throw~ outR;
#X obj 1534 63 r~ inL;
#X obj 1630 63 r~ inR;
#X text 1525 33 input monitoring;
#X obj 449 472 looper-mix;
#X obj 52 472 looper-mix;
#X obj 735 84 klatch 1;
#X floatatom 735 108 5 0 0 0 - - - 0;
#X obj 593 132 list prepend volume;
#X obj 735 131 list prepend volume;
#X obj 1179 497 r looper-status;
#X obj 428 255 s looper-msg-2;
#X obj 449 383 r looper-mix-2;
#X obj 52 383 r looper-mix-1;
#X obj 735 155 s looper-mix-2;
#X obj 1382 47 r looper-status;
#X obj 405 277 s looper-msg-1;
#X obj 593 156 s looper-mix-1;
#X obj 173 335 r looper-msg-1;
#X obj 563 335 r looper-msg-2;
#X obj 119 496 s screenLine1;
#X obj 516 498 s screenLine2;
#X obj 152 179 s activeLooper;
#X obj 451 186 r activeLooper;
#X msg 1046 77 mute;
#X obj 1093 77 r activeLooper;
#X obj 1046 174 s looper-mix-1;
#X obj 1069 148 s looper-mix-2;
#X obj 321 367 r activeLooper;
#X obj 321 391 == 1;
#X obj 282 414 spigot;
#X obj 282 438 s looper-status;
#X obj 717 366 r activeLooper;
#X obj 678 413 spigot;
#X obj 678 436 s looper-status;
#X obj 717 389 == 2;
#X obj 435 162 r looper-msg;
#X obj 1507 342 s looper-msg;
#X obj 332 46 r notes;
#X text 324 21 play/pause;
#X obj 332 72 ktrig 61;
#X msg 332 96 playpause;
#X obj 1179 773 makefilename 1:\ %s;
#X msg 1022 726 set \$1;
#X obj 1022 703 makefilename %d:\ %%s;
#X obj 1022 675 r activeLooper;
#X obj 1179 846 s screenLine5;
#X msg 1395 673 symbol Stopped;
#X obj 152 155 change;
#X obj 563 383 looper~ 60;
#X obj 173 382 looper~ 60;
#X obj 1179 823 spigot 1;
#X obj 1232 799 r status-gate;
#X msg 1582 286 1;
#X obj 1582 310 s status-gate;
#X msg 1372 370 1;
#X obj 1372 394 s status-gate;
#X obj 1112 269 t b b;
#X msg 1144 293 0;
#X obj 1144 317 s status-gate;
#X obj 238 93 ktrig 64;
#X msg 238 117 3;
#X obj 34 873 throw~ outL;
#X obj 67 850 throw~ outR;
#X obj 201 796 vumeter;
#X obj 268 796 vumeter;
#X obj 175 688 r~ inL;
#X obj 225 688 r~ inR;
#X obj 34 801 looper-mix;
#X obj 302 695 r activeLooper;
#X obj 263 742 spigot;
#X obj 263 765 s looper-status;
#X obj 148 712 looper~ 60;
#X obj 302 718 == 3;
#X obj 148 664 r looper-msg-3;
#X obj 34 712 r looper-mix-3;
#X obj 101 827 s screenLine3;
#X obj 405 209 router3;
#X obj 451 233 s looper-msg-3;
#X obj 1046 101 router3;
#X obj 1092 125 s looper-mix-3;
#X floatatom 878 62 5 0 0 0 - - - 0;
#X obj 878 85 klatch 1;
#X floatatom 878 109 5 0 0 0 - - - 0;
#X obj 878 132 list prepend volume;
#X obj 878 40 r knob3;
#X obj 878 156 s looper-mix-3;
#X obj 879 211 r knob4;
#X floatatom 879 235 5 0 0 0 - - - 0;
#X obj 879 258 - 0.5;
#X floatatom 879 306 5 0 0 0 - - - 0;
#X obj 879 386 s looper-msg;
#X obj 891 359 s screenLine4;
#X msg 879 329 speed \$1;
#X obj 879 282 * 4;
#X connect 0 0 1 0;
#X connect 1 0 46 0;
#X connect 2 0 87 0;
#X connect 3 0 2 0;
#X connect 4 0 58 0;
#X connect 7 0 131 0;
#X connect 8 0 131 1;
#X connect 9 0 13 0;
#X connect 10 0 16 0;
#X connect 11 0 15 0;
#X connect 12 0 17 0;
#X connect 12 0 128 0;
#X connect 13 0 21 0;
#X connect 15 0 14 0;
#X connect 16 0 25 0;
#X connect 17 0 26 0;
#X connect 21 0 22 0;
#X connect 21 1 48 0;
#X connect 22 0 10 0;
#X connect 22 0 23 0;
#X connect 22 1 11 0;
#X connect 22 1 24 0;
#X connect 23 0 123 0;
#X connect 24 0 123 0;
#X connect 27 0 57 0;
#X connect 28 0 29 0;
#X connect 29 0 32 0;
#X connect 29 0 35 0;
#X connect 29 0 138 0;
#X connect 29 1 44 0;
#X connect 30 0 31 0;
#X connect 32 0 33 0;
#X connect 34 0 36 0;
#X connect 34 0 136 0;
#X connect 35 0 34 0;
#X connect 36 0 37 0;
#X connect 38 0 39 0;
#X connect 40 0 41 0;
#X connect 42 0 34 0;
#X connect 43 0 118 0;
#X connect 44 0 42 0;
#X connect 44 1 40 0;
#X connect 44 2 38 0;
#X connect 44 3 43 0;
#X connect 44 4 45 0;
#X connect 45 0 134 0;
#X connect 46 0 47 0;
#X connect 47 0 89 0;
#X connect 48 0 49 0;
#X connect 49 0 12 0;
#X connect 52 0 53 0;
#X connect 53 0 54 0;
#X connect 53 1 55 0;
#X connect 54 0 56 0;
#X connect 55 0 56 0;
#X connect 56 0 57 1;
#X connect 57 0 28 0;
#X connect 58 0 105 0;
#X connect 59 0 60 0;
#X connect 59 0 61 0;
#X connect 59 0 141 0;
#X connect 60 0 64 0;
#X connect 61 0 65 0;
#X connect 63 0 27 0;
#X connect 64 0 129 0;
#X connect 65 0 129 0;
#X connect 66 0 68 0;
#X connect 67 0 68 0;
#X connect 68 0 69 0;
#X connect 69 0 70 0;
#X connect 70 0 158 0;
#X connect 73 0 64 0;
#X connect 78 0 130 0;
#X connect 79 0 130 1;
#X connect 82 0 80 0;
#X connect 83 0 81 0;
#X connect 85 0 74 0;
#X connect 85 1 75 0;
#X connect 85 2 102 0;
#X connect 86 0 18 0;
#X connect 86 1 19 0;
#X connect 86 2 101 0;
#X connect 87 0 88 0;
#X connect 88 0 90 0;
#X connect 89 0 98 0;
#X connect 90 0 95 0;
#X connect 91 0 21 0;
#X connect 93 0 85 0;
#X connect 94 0 86 0;
#X connect 96 0 52 0;
#X connect 99 0 131 0;
#X connect 100 0 130 0;
#X connect 104 0 158 1;
#X connect 105 0 160 0;
#X connect 106 0 160 1;
#X connect 109 0 110 0;
#X connect 110 0 111 1;
#X connect 111 0 112 0;
#X connect 113 0 116 0;
#X connect 114 0 115 0;
#X connect 116 0 114 1;
#X connect 117 0 158 0;
#X connect 119 0 121 0;
#X connect 121 0 122 0;
#X connect 122 0 158 0;
#X connect 123 0 132 0;
#X connect 124 0 123 0;
#X connect 125 0 124 0;
#X connect 126 0 125 0;
#X connect 128 0 123 0;
#X connect 129 0 103 0;
#X connect 130 0 76 0;
#X connect 130 0 85 1;
#X connect 130 1 77 0;
#X connect 130 1 85 2;
#X connect 130 2 114 0;
#X connect 131 0 5 0;
#X connect 131 0 86 1;
#X connect 131 1 86 2;
#X connect 131 1 6 0;
#X connect 131 2 111 0;
#X connect 132 0 127 0;
#X connect 133 0 132 1;
#X connect 134 0 135 0;
#X connect 136 0 137 0;
#X connect 138 0 30 0;
#X connect 138 1 139 0;
#X connect 139 0 140 0;
#X connect 141 0 142 0;
#X connect 142 0 129 0;
#X connect 147 0 153 0;
#X connect 148 0 153 1;
#X connect 149 0 143 0;
#X connect 149 1 144 0;
#X connect 149 2 157 0;
#X connect 150 0 154 0;
#X connect 151 0 152 0;
#X connect 153 0 145 0;
#X connect 153 0 149 1;
#X connect 153 1 146 0;
#X connect 153 1 149 2;
#X connect 153 2 151 0;
#X connect 154 0 151 1;
#X connect 155 0 153 0;
#X connect 156 0 149 0;
#X connect 158 0 97 0;
#X connect 158 1 92 0;
#X connect 158 2 159 0;
#X connect 160 0 107 0;
#X connect 160 1 108 0;
#X connect 160 2 161 0;
#X connect 162 0 163 0;
#X connect 163 0 164 0;
#X connect 164 0 165 0;
#X connect 165 0 167 0;
#X connect 166 0 162 0;
#X connect 168 0 169 0;
#X connect 169 0 170 0;
#X connect 170 0 175 0;
#X connect 171 0 174 0;
#X connect 174 0 173 0;
#X connect 174 0 172 0;
#X connect 175 0 171 0;
