#N canvas 402 105 1203 864 12;
#X obj 20 588 r knob1;
#X floatatom 20 610 5 0 0 0 - - - 0;
#X floatatom 33 729 5 0 0 0 - - - 0;
#X floatatom 29 780 5 0 0 0 - - - 0;
#X floatatom 30 827 5 0 0 0 - - - 0;
#X obj 33 707 r knob2;
#X obj 29 758 r knob3;
#X obj 30 805 r knob4;
#X obj 33 97 r aux;
#X obj 76 97 r fs;
#X obj 177 35 r notes;
#X floatatom 33 126 5 0 0 0 - - - 0;
#X obj 33 154 sel 1;
#X msg 33 183 start;
#X obj 164 257 throw~ outL;
#X obj 260 257 throw~ outR;
#X obj 319 331 vumeter;
#X obj 383 331 vumeter;
#X msg 33 212 stop;
#X msg 33 241 clear;
#X obj 164 229 r~ inL;
#X obj 260 229 r~ inR;
#X obj 156 300 looper~ 60;
#X obj 562 583 loadbang;
#X obj 566 689 bng 19 250 50 0 empty empty empty 0 -10 0 12 #fcfcfc #000000 #000000;
#X obj 664 686 bng 19 250 50 0 empty empty empty 0 -10 0 12 #fcfcfc #000000 #000000;
#X obj 770 699 bng 19 250 50 0 empty empty empty 0 -10 0 12 #fcfcfc #000000 #000000;
#X msg 562 605 symbol stopped;
#X obj 554 817 s screenLine5;
#X msg 770 731 Stopped;
#X obj 664 733 s led;
#X msg 664 709 1;
#X msg 566 712 2;
#X msg 878 731 0;
#X obj 149 384 *~;
#X obj 125 500 throw~ outL;
#X obj 188 384 *~, f 2;
#X obj 211 500 throw~ outR;
#X obj 355 626 * 100;
#X obj 355 648 i;
#X obj 356 788 s screenLine1;
#X msg 263 748 Volume: \$1%;
#X obj 177 133 route 1;
#X msg 43 315 \$1 20;
#X obj 43 337 line~;
#X text 184 66 play/pause;
#X text 297 66 mute;
#X obj 288 133 s \$0-mute;
#X obj 223 335 r \$0-mute;
#X obj 223 359 - 1;
#X obj 223 383 abs;
#X msg 223 407 \$1 20;
#X obj 223 429 line~;
#X obj 20 684 s \$0-volume;
#X obj 43 293 r \$0-volume;
#X obj 355 604 r \$0-volume;
#X obj 262 567 r \$0-mute;
#X obj 355 688 spigot;
#X floatatom 262 593 5 0 0 0 - - - 0;
#X obj 197 567 loadbang;
#X obj 263 667 - 1;
#X obj 263 691 abs;
#X obj 263 721 spigot;
#X msg 355 712 Volume: \$1% (M);
#X obj 262 616 t b f;
#X obj 149 466 *~;
#X obj 188 466 *~;
#X obj 253 359 loadbang;
#X msg 253 383 1;
#X obj 554 628 route list symbol;
#X obj 554 660 route playing recording;
#X obj 554 757 makefilename Playing\ -%.1fs;
#X obj 633 783 makefilename Recording\ -%.1fs;
#X obj 566 735 s led;
#X obj 770 755 s screenLine5;
#X obj 878 755 s led;
#X obj 519 125 ktrig 66;
#X obj 519 261 v \$0-clear-state;
#X obj 519 285 sel 0 1;
#X msg 542 363 clear CONFIRM?;
#X obj 542 387 s screenLine5;
#X msg 549 315 1;
#X obj 549 339 v \$0-clear-state;
#X obj 519 410 delay 4000;
#X obj 519 387 bng 19 250 50 0 empty empty empty 0 -10 0 12 #fcfcfc #000000 #000000;
#X msg 519 434 0;
#X obj 519 458 v \$0-clear-state;
#X msg 733 332 clearing!;
#X obj 733 356 s screenLine5;
#X msg 712 406 0;
#X obj 712 430 v \$0-clear-state;
#X msg 693 332 stop;
#X obj 110 205 r \$0-looper-msg;
#X msg 773 382 clear;
#X obj 773 406 s \$0-looper-msg;
#X msg 638 434 Stopped;
#X obj 638 458 s screenLine5;
#X obj 693 300 t b b b b b;
#X msg 848 350 Stopped;
#X obj 848 374 s screenLine5;
#X obj 848 326 delay 1000;
#X obj 20 633 klatch 1;
#X floatatom 20 657 5 0 0 0 - - - 0;
#X obj 770 653 list trim;
#X obj 770 677 route stopped;
#X text 701 550 status display;
#X text 519 104 clear loop logic;
#X text 129 12 buttons (notes 60-83 on Organelle);
#X text 29 68 record button;
#X obj 249 300 s \$0-looper-status;
#X obj 554 551 r \$0-looper-status;
#X text 339 572 volume/muting display;
#X text 25 562 knobs (volume control);
#X text 243 192 audio core;
#X obj 648 111 r \$0-looper-status;
#X obj 648 135 list split 1;
#X obj 648 159 sel stopped;
#X msg 648 183 1;
#X msg 722 183 0;
#X obj 648 207 tgl 19 0 empty empty empty 0 -10 0 12 #fcfcfc #000000 #000000 0 1;
#X obj 519 238 spigot;
#X obj 177 110 tgl 19 0 empty empty empty 0 -10 0 12 #fcfcfc #000000 #000000 0 1;
#X obj 288 110 tgl 19 0 empty empty empty 0 -10 0 12 #fcfcfc #000000 #000000 0 1;
#X obj 177 86 ktrig 61;
#X obj 288 86 ktrig 63;
#X connect 0 0 1 0;
#X connect 1 0 101 0;
#X connect 5 0 2 0;
#X connect 6 0 3 0;
#X connect 7 0 4 0;
#X connect 8 0 11 0;
#X connect 9 0 11 0;
#X connect 10 0 76 0;
#X connect 10 0 123 0;
#X connect 10 0 124 0;
#X connect 11 0 12 0;
#X connect 12 0 13 0;
#X connect 13 0 22 0;
#X connect 18 0 22 0;
#X connect 19 0 22 0;
#X connect 20 0 22 0;
#X connect 20 0 14 0;
#X connect 21 0 22 1;
#X connect 21 0 15 0;
#X connect 22 0 16 0;
#X connect 22 0 17 0;
#X connect 22 0 34 0;
#X connect 22 1 36 0;
#X connect 22 2 109 0;
#X connect 23 0 27 0;
#X connect 24 0 32 0;
#X connect 25 0 31 0;
#X connect 26 0 29 0;
#X connect 26 0 33 0;
#X connect 27 0 69 0;
#X connect 29 0 74 0;
#X connect 31 0 30 0;
#X connect 32 0 73 0;
#X connect 33 0 75 0;
#X connect 34 0 65 0;
#X connect 36 0 66 0;
#X connect 38 0 39 0;
#X connect 39 0 62 0;
#X connect 39 0 57 0;
#X connect 41 0 40 0;
#X connect 42 0 18 0;
#X connect 42 1 13 0;
#X connect 43 0 44 0;
#X connect 44 0 34 1;
#X connect 44 0 36 1;
#X connect 48 0 49 0;
#X connect 49 0 50 0;
#X connect 50 0 51 0;
#X connect 51 0 52 0;
#X connect 52 0 65 1;
#X connect 52 0 66 1;
#X connect 54 0 43 0;
#X connect 55 0 38 0;
#X connect 56 0 58 0;
#X connect 57 0 63 0;
#X connect 58 0 64 0;
#X connect 59 0 58 0;
#X connect 60 0 61 0;
#X connect 61 0 62 1;
#X connect 62 0 41 0;
#X connect 63 0 40 0;
#X connect 64 0 39 0;
#X connect 64 1 57 1;
#X connect 64 1 60 0;
#X connect 65 0 35 0;
#X connect 66 0 37 0;
#X connect 67 0 68 0;
#X connect 68 0 51 0;
#X connect 69 0 70 0;
#X connect 69 1 103 0;
#X connect 70 0 24 0;
#X connect 70 0 71 0;
#X connect 70 1 25 0;
#X connect 70 1 72 0;
#X connect 71 0 28 0;
#X connect 72 0 28 0;
#X connect 76 0 120 0;
#X connect 77 0 78 0;
#X connect 78 0 79 0;
#X connect 78 0 81 0;
#X connect 78 0 84 0;
#X connect 78 1 97 0;
#X connect 79 0 80 0;
#X connect 81 0 82 0;
#X connect 83 0 85 0;
#X connect 83 0 95 0;
#X connect 84 0 83 0;
#X connect 85 0 86 0;
#X connect 87 0 88 0;
#X connect 89 0 90 0;
#X connect 91 0 83 0;
#X connect 92 0 22 0;
#X connect 93 0 94 0;
#X connect 95 0 96 0;
#X connect 97 0 91 0;
#X connect 97 1 89 0;
#X connect 97 2 87 0;
#X connect 97 3 93 0;
#X connect 97 4 100 0;
#X connect 98 0 99 0;
#X connect 100 0 98 0;
#X connect 101 0 102 0;
#X connect 102 0 53 0;
#X connect 103 0 104 0;
#X connect 104 0 26 0;
#X connect 110 0 69 0;
#X connect 114 0 115 0;
#X connect 115 0 116 0;
#X connect 116 0 117 0;
#X connect 116 1 118 0;
#X connect 117 0 119 0;
#X connect 119 0 120 1;
#X connect 120 0 77 0;
#X connect 121 0 42 0;
#X connect 122 0 47 0;
#X connect 123 0 121 0;
#X connect 124 0 122 0;
