#N canvas 105 46 946 356 10;
#X obj 120 135 vumeter;
#X obj 184 135 vumeter;
#X obj 144 76 r~ inL;
#X obj 199 76 r~ inR;
#X obj 45 135 throw~ outL;
#X obj 248 135 throw~ outR;
#X obj 160 108 tape 1;
#X obj 412 135 vumeter;
#X obj 476 135 vumeter;
#X obj 436 76 r~ inL;
#X obj 491 76 r~ inR;
#X obj 337 135 throw~ outL;
#X obj 540 135 throw~ outR;
#X obj 452 108 tape 2;
#X obj 702 135 vumeter;
#X obj 766 135 vumeter;
#X obj 726 76 r~ inL;
#X obj 781 76 r~ inR;
#X obj 627 135 throw~ outL;
#X obj 830 135 throw~ outR;
#X obj 742 108 tape 3;
#N canvas 108 105 905 684 keys 0;
#X obj 82 36 r notes;
#X obj 82 68 ktrig 60;
#X obj 138 68 ktrig 62;
#X msg 82 92 1;
#X msg 138 92 2;
#X text 17 13 route controls between looper instances;
#X obj 25 68 loadbang;
#X obj 116 139 s activeLooper;
#X obj 116 120 change;
#X obj 194 68 ktrig 64;
#X msg 194 92 3;
#X obj 326 36 r aux;
#X obj 373 36 r fs;
#X floatatom 326 60 5 0 0 0 - - - 0;
#X obj 326 78 sel 1;
#X msg 326 97 start;
#X text 329 11 record button;
#X obj 345 198 s looper-msg-2;
#X obj 326 218 s looper-msg-1;
#X obj 372 137 r activeLooper;
#X obj 356 117 r looper-msg;
#X obj 326 157 router3;
#X obj 365 178 s looper-msg-3;
#X obj 158 395 v \$0-clear-state;
#X obj 158 419 sel 0 1;
#X msg 17 564 clear CONFIRM?;
#X obj 17 588 s screenLine5;
#X msg 188 475 1;
#X obj 188 499 v \$0-clear-state;
#X obj 158 570 delay 4000;
#X obj 158 547 bng 19 250 50 0 empty empty empty 0 -10 0 12 #fcfcfc #000000 #000000;
#X msg 158 594 0;
#X obj 158 618 v \$0-clear-state;
#X msg 372 492 clearing!;
#X obj 372 516 s screenLine5;
#X msg 351 566 0;
#X obj 351 590 v \$0-clear-state;
#X msg 332 492 stop;
#X msg 412 542 clear;
#X obj 332 466 t b b b b b;
#X obj 487 486 delay 1000;
#X obj 287 295 list split 1;
#X obj 287 319 sel stopped;
#X msg 287 343 1;
#X msg 361 343 0;
#X obj 287 367 tgl 19 0 empty empty empty 0 -10 0 12 #fcfcfc #000000 #000000 0 1;
#X obj 158 372 spigot;
#X text 163 243 clear loop;
#X obj 158 268 r notes;
#X obj 287 271 r looper-status;
#X obj 412 566 s looper-msg;
#X msg 487 510 1;
#X obj 487 534 s status-gate;
#X msg 277 594 1;
#X obj 277 618 s status-gate;
#X obj 17 493 t b b;
#X msg 49 517 0;
#X obj 49 541 s status-gate;
#X obj 557 203 r notes;
#X msg 557 251 mute;
#X obj 557 310 s looper-mix-1;
#X obj 617 290 s looper-mix-2;
#X obj 651 40 r notes;
#X msg 560 94 playpause;
#X obj 677 270 s looper-mix-3;
#X text 552 19 play/pause for each instance;
#X obj 560 70 ktrig 65;
#X obj 652 70 ktrig 67;
#X obj 744 70 ktrig 69;
#X obj 560 115 s looper-msg-1;
#X msg 652 94 playpause;
#X msg 744 94 playpause;
#X obj 652 115 s looper-msg-2;
#X obj 744 115 s looper-msg-3;
#X text 557 180 mute for each instance;
#X obj 158 294 ktrig 61;
#X msg 617 251 mute;
#X msg 677 251 mute;
#X obj 557 232 ktrig 66;
#X obj 617 232 ktrig 68;
#X obj 677 232 ktrig 70;
#X obj 688 410 r notes;
#X obj 688 431 ktrig 63;
#X obj 688 452 tgl 16 0 empty empty empty 0 -8 0 10 #fcfcfc #000000 #000000 0 1;
#X obj 763 408 loadbang;
#X msg 763 429 1;
#X msg 688 473 \$1 20;
#X obj 688 493 line~;
#X obj 644 591 throw~ outL;
#X obj 729 591 throw~ outR;
#X obj 620 543 r~ inL;
#X obj 680 540 r~ inR;
#X text 682 380 input monitoring;
#X obj 644 572 *~;
#X obj 729 572 *~;
#X connect 0 0 1 0;
#X connect 0 0 2 0;
#X connect 0 0 9 0;
#X connect 1 0 3 0;
#X connect 2 0 4 0;
#X connect 3 0 8 0;
#X connect 4 0 8 0;
#X connect 6 0 3 0;
#X connect 8 0 7 0;
#X connect 9 0 10 0;
#X connect 10 0 8 0;
#X connect 11 0 13 0;
#X connect 12 0 13 0;
#X connect 13 0 14 0;
#X connect 14 0 15 0;
#X connect 15 0 21 0;
#X connect 19 0 21 1;
#X connect 20 0 21 0;
#X connect 21 0 18 0;
#X connect 21 1 17 0;
#X connect 21 2 22 0;
#X connect 23 0 24 0;
#X connect 24 0 27 0;
#X connect 24 0 30 0;
#X connect 24 0 55 0;
#X connect 24 1 39 0;
#X connect 25 0 26 0;
#X connect 27 0 28 0;
#X connect 29 0 31 0;
#X connect 29 0 53 0;
#X connect 30 0 29 0;
#X connect 31 0 32 0;
#X connect 33 0 34 0;
#X connect 35 0 36 0;
#X connect 37 0 29 0;
#X connect 38 0 50 0;
#X connect 39 0 37 0;
#X connect 39 1 35 0;
#X connect 39 2 33 0;
#X connect 39 3 38 0;
#X connect 39 4 40 0;
#X connect 40 0 51 0;
#X connect 41 0 42 0;
#X connect 42 0 43 0;
#X connect 42 1 44 0;
#X connect 43 0 45 0;
#X connect 44 0 45 0;
#X connect 45 0 46 1;
#X connect 46 0 23 0;
#X connect 48 0 75 0;
#X connect 49 0 41 0;
#X connect 51 0 52 0;
#X connect 53 0 54 0;
#X connect 55 0 25 0;
#X connect 55 1 56 0;
#X connect 56 0 57 0;
#X connect 58 0 78 0;
#X connect 58 0 79 0;
#X connect 58 0 80 0;
#X connect 59 0 60 0;
#X connect 62 0 66 0;
#X connect 62 0 67 0;
#X connect 62 0 68 0;
#X connect 63 0 69 0;
#X connect 66 0 63 0;
#X connect 67 0 70 0;
#X connect 68 0 71 0;
#X connect 70 0 72 0;
#X connect 71 0 73 0;
#X connect 75 0 46 0;
#X connect 76 0 61 0;
#X connect 77 0 64 0;
#X connect 78 0 59 0;
#X connect 79 0 76 0;
#X connect 80 0 77 0;
#X connect 81 0 82 0;
#X connect 82 0 83 0;
#X connect 83 0 86 0;
#X connect 84 0 85 0;
#X connect 85 0 83 0;
#X connect 86 0 87 0;
#X connect 87 0 94 1;
#X connect 87 0 93 1;
#X connect 90 0 93 0;
#X connect 91 0 94 0;
#X connect 93 0 88 0;
#X connect 94 0 89 0;
#X restore 35 32 pd keys;
#N canvas 144 246 967 303 knobs 0;
#X obj 21 41 r knob1;
#X floatatom 21 60 5 0 0 0 - - - 0;
#X floatatom 163 59 5 0 0 0 - - - 0;
#X obj 163 40 r knob2;
#X obj 21 79 klatch 1;
#X floatatom 21 99 5 0 0 0 - - - 0;
#X obj 163 78 klatch 1;
#X floatatom 163 98 5 0 0 0 - - - 0;
#X obj 21 118 list prepend volume;
#X obj 163 117 list prepend volume;
#X obj 163 137 s looper-mix-2;
#X obj 21 138 s looper-mix-1;
#X floatatom 306 60 5 0 0 0 - - - 0;
#X obj 306 79 klatch 1;
#X floatatom 306 99 5 0 0 0 - - - 0;
#X obj 306 118 list prepend volume;
#X obj 306 41 r knob3;
#X obj 306 138 s looper-mix-3;
#X obj 470 35 r knob4;
#X floatatom 470 55 5 0 0 0 - - - 0;
#X obj 564 98 array set ratio;
#X obj 564 37 loadbang;
#X obj 470 94 int;
#X floatatom 470 134 5 0 0 0 - - - 0;
#X obj 470 114 tabread ratio;
#X obj 470 74 * 14;
#X obj 632 37 array define ratio 14;
#X text 466 10 speed control;
#X msg 564 56 -2 -1.5 -1.33333 -1 -0.75 -0.666667 -0.5 0.5 0.666667 0.75 1 1.33333 1.5 2, f 37;
#X text 26 15 volume control for each tape;
#X obj 707 205 makefilename 1:\ %s;
#X msg 649 174 set \$1;
#X obj 649 155 makefilename %d:\ %%s;
#X obj 649 136 r activeLooper;
#X obj 786 155 r looper-speed-status;
#X obj 707 226 s screenLine4;
#X obj 470 197 tape-speed-control 1;
#X obj 488 177 tape-speed-control 2;
#X obj 497 157 tape-speed-control 3;
#X obj 786 178 list;
#X connect 0 0 1 0;
#X connect 1 0 4 0;
#X connect 2 0 6 0;
#X connect 3 0 2 0;
#X connect 4 0 5 0;
#X connect 5 0 8 0;
#X connect 6 0 7 0;
#X connect 7 0 9 0;
#X connect 8 0 11 0;
#X connect 9 0 10 0;
#X connect 12 0 13 0;
#X connect 13 0 14 0;
#X connect 14 0 15 0;
#X connect 15 0 17 0;
#X connect 16 0 12 0;
#X connect 18 0 19 0;
#X connect 19 0 25 0;
#X connect 21 0 28 0;
#X connect 22 0 24 0;
#X connect 23 0 36 0;
#X connect 23 0 37 0;
#X connect 23 0 38 0;
#X connect 24 0 23 0;
#X connect 25 0 22 0;
#X connect 28 0 20 0;
#X connect 30 0 35 0;
#X connect 31 0 30 0;
#X connect 32 0 31 0;
#X connect 33 0 32 0;
#X connect 34 0 39 0;
#X connect 39 0 30 0;
#X restore 85 32 pd knobs;
#N canvas 84 98 590 442 status 0;
#X obj 189 63 loadbang;
#X obj 193 169 bng 19 250 50 0 empty empty empty 0 -10 0 12 #fcfcfc #000000 #000000;
#X obj 291 166 bng 19 250 50 0 empty empty empty 0 -10 0 12 #fcfcfc #000000 #000000;
#X obj 397 179 bng 19 250 50 0 empty empty empty 0 -10 0 12 #fcfcfc #000000 #000000;
#X msg 189 85 symbol stopped;
#X obj 291 213 s led;
#X msg 291 189 1;
#X msg 193 192 2;
#X msg 510 185 0;
#X obj 181 108 route list symbol;
#X obj 181 140 route playing recording;
#X obj 181 237 makefilename Playing\ -%.1fs;
#X obj 230 260 makefilename Recording\ -%.1fs;
#X obj 193 215 s led;
#X obj 510 209 s led;
#X obj 397 133 list trim;
#X obj 397 157 route stopped;
#X text 328 30 status display;
#X obj 181 31 r looper-status;
#X obj 181 307 makefilename 1:\ %s;
#X msg 24 260 set \$1;
#X obj 24 237 makefilename %d:\ %%s;
#X obj 24 209 r activeLooper;
#X obj 181 380 s screenLine5;
#X msg 397 207 symbol Stopped;
#X obj 181 357 spigot 1;
#X obj 234 333 r status-gate;
#X connect 0 0 4 0;
#X connect 1 0 7 0;
#X connect 2 0 6 0;
#X connect 3 0 8 0;
#X connect 3 0 24 0;
#X connect 4 0 9 0;
#X connect 6 0 5 0;
#X connect 7 0 13 0;
#X connect 8 0 14 0;
#X connect 9 0 10 0;
#X connect 9 1 15 0;
#X connect 10 0 1 0;
#X connect 10 0 11 0;
#X connect 10 1 2 0;
#X connect 10 1 12 0;
#X connect 11 0 19 0;
#X connect 12 0 19 0;
#X connect 15 0 16 0;
#X connect 16 0 3 0;
#X connect 18 0 9 0;
#X connect 19 0 25 0;
#X connect 20 0 19 0;
#X connect 21 0 20 0;
#X connect 22 0 21 0;
#X connect 24 0 19 0;
#X connect 25 0 23 0;
#X connect 26 0 25 1;
#X restore 142 32 pd status;
#X connect 2 0 6 0;
#X connect 3 0 6 1;
#X connect 6 0 4 0;
#X connect 6 0 0 0;
#X connect 6 1 5 0;
#X connect 6 1 1 0;
#X connect 9 0 13 0;
#X connect 10 0 13 1;
#X connect 13 0 11 0;
#X connect 13 0 7 0;
#X connect 13 1 12 0;
#X connect 13 1 8 0;
#X connect 16 0 20 0;
#X connect 17 0 20 1;
#X connect 20 0 18 0;
#X connect 20 0 14 0;
#X connect 20 1 19 0;
#X connect 20 1 15 0;
