#N canvas 99 57 1712 966 12;
#X obj 20 588 r knob1;
#X floatatom 20 610 5 0 0 0 - - - 0;
#X floatatom 172 611 5 0 0 0 - - - 0;
#X floatatom 29 780 5 0 0 0 - - - 0;
#X floatatom 30 827 5 0 0 0 - - - 0;
#X obj 172 589 r knob2;
#X obj 29 758 r knob3;
#X obj 30 805 r knob4;
#X obj 177 35 r notes;
#X msg 34 181 start;
#X obj 319 331 vumeter;
#X obj 383 331 vumeter;
#X msg 33 212 stop;
#X msg 33 241 clear;
#X obj 173 252 r~ inL;
#X obj 269 252 r~ inR;
#X obj 1028 763 loadbang;
#X obj 1032 869 bng 19 250 50 0 empty empty empty 0 -10 0 12 #fcfcfc #000000 #000000;
#X obj 1130 866 bng 19 250 50 0 empty empty empty 0 -10 0 12 #fcfcfc #000000 #000000;
#X obj 1236 879 bng 19 250 50 0 empty empty empty 0 -10 0 12 #fcfcfc #000000 #000000;
#X msg 1028 785 symbol stopped;
#X obj 1020 997 s screenLine5;
#X msg 1236 911 Stopped;
#X obj 1130 913 s led;
#X msg 1130 889 1;
#X msg 1032 892 2;
#X msg 1344 911 0;
#X obj 125 500 throw~ outL;
#X obj 211 500 throw~ outR;
#X obj 510 773 * 100;
#X obj 510 795 i;
#X obj 511 935 s screenLine1;
#X msg 418 895 Volume: \$1%;
#X obj 177 153 route 1;
#X text 184 66 play/pause;
#X text 297 66 mute;
#X obj 510 835 spigot;
#X floatatom 417 740 5 0 0 0 - - - 0;
#X obj 352 714 loadbang;
#X obj 418 814 - 1;
#X obj 418 838 abs;
#X obj 418 868 spigot;
#X msg 510 859 Volume: \$1% (M);
#X obj 417 763 t b f;
#X obj 1020 808 route list symbol;
#X obj 1020 840 route playing recording;
#X obj 1020 937 makefilename Playing\ -%.1fs;
#X obj 1099 963 makefilename Recording\ -%.1fs;
#X obj 1032 915 s led;
#X obj 1236 935 s screenLine5;
#X obj 1344 935 s led;
#X obj 517 61 ktrig 66;
#X obj 519 261 v \$0-clear-state;
#X obj 519 285 sel 0 1;
#X msg 542 363 clear CONFIRM?;
#X obj 542 387 s screenLine5;
#X msg 549 315 1;
#X obj 549 339 v \$0-clear-state;
#X obj 519 410 delay 4000;
#X obj 519 387 bng 19 250 50 0 empty empty empty 0 -10 0 12 #fcfcfc #000000 #000000;
#X msg 519 434 0;
#X obj 519 458 v \$0-clear-state;
#X msg 733 332 clearing!;
#X obj 733 356 s screenLine5;
#X msg 712 406 0;
#X obj 712 430 v \$0-clear-state;
#X msg 693 332 stop;
#X msg 773 382 clear;
#X msg 638 434 Stopped;
#X obj 638 458 s screenLine5;
#X obj 693 300 t b b b b b;
#X msg 848 350 Stopped;
#X obj 848 374 s screenLine5;
#X obj 848 326 delay 1000;
#X obj 20 633 klatch 1;
#X floatatom 20 657 5 0 0 0 - - - 0;
#X obj 1236 833 list trim;
#X obj 1236 857 route stopped;
#X text 1167 730 status display;
#X text 172 11 buttons (notes 60-83 on Organelle);
#X obj 249 300 s \$0-looper-status;
#X obj 1020 731 r \$0-looper-status;
#X text 25 562 knobs (volume control);
#X text 243 192 audio core;
#X obj 648 111 r \$0-looper-status;
#X obj 648 135 list split 1;
#X obj 648 159 sel stopped;
#X msg 648 183 1;
#X msg 722 183 0;
#X obj 648 207 tgl 19 0 empty empty empty 0 -10 0 12 #fcfcfc #000000 #000000 0 1;
#X obj 519 238 spigot;
#X obj 177 130 tgl 19 0 empty empty empty 0 -10 0 12 #fcfcfc #000000 #000000 0 1;
#X obj 288 130 tgl 19 0 empty empty empty 0 -10 0 12 #fcfcfc #000000 #000000 0 1;
#X obj 177 86 ktrig 61;
#X obj 288 86 ktrig 63;
#X obj 1216 77 r notes;
#X obj 1216 121 ktrig 60;
#X obj 1310 122 ktrig 62;
#X text 541 38 clear loop;
#X text 699 225 clear loop logic;
#X obj 517 12 r notes;
#X obj 137 294 looper-inst 60;
#X msg 1216 145 1;
#X msg 1310 146 2;
#X obj 1216 240 == 1;
#X obj 1349 240 == 2;
#X obj 1177 274 spigot;
#X obj 1310 275 spigot;
#X obj 1216 189 f;
#X obj 120 205 r \$0-looper-msg-1;
#X obj 773 406 s \$0-looper-msg-1;
#X obj 970 56 r aux;
#X obj 1013 56 r fs;
#X floatatom 970 85 5 0 0 0 - - - 0;
#X obj 970 113 sel 1;
#X msg 970 140 start;
#X text 966 27 record button;
#X obj 1177 298 s \$0-looper-msg-1;
#X obj 1310 299 s \$0-looper-msg-2;
#X text 1299 80 route controls between looper instances;
#X obj 1144 121 loadbang;
#X obj 1149 190 t a;
#X obj 1193 460 looper-inst 60;
#X obj 1166 630 throw~ outL;
#X obj 1252 630 throw~ outR;
#X obj 1147 403 r \$0-looper-msg-2;
#X obj 1344 485 vumeter;
#X obj 1411 485 vumeter;
#X obj 1302 388 r~ inL;
#X obj 1398 388 r~ inR;
#X obj 1483 868 throw~ outL;
#X obj 1579 868 throw~ outR;
#X obj 1483 840 r~ inL;
#X obj 1579 840 r~ inR;
#X text 1474 810 input monitoring;
#X obj 417 714 r \$0-mute-1;
#X obj 288 153 s \$0-mute-1;
#X obj 1045 489 r \$0-looper-mix-2;
#X obj 1168 543 looper-mix;
#X obj 22 351 r \$0-looper-mix-1;
#X obj 163 391 looper-mix;
#X obj 172 634 klatch 1;
#X floatatom 172 658 5 0 0 0 - - - 0;
#X obj 20 680 list prepend volume;
#X obj 20 704 s \$0-looper-mix-1;
#X obj 172 681 list prepend volume;
#X obj 172 705 s \$0-looper-mix-2;
#X obj 364 577 r \$0-looper-mix-1;
#X obj 364 601 list trim;
#X obj 364 625 route volume;
#X obj 742 774 * 100;
#X obj 742 796 i;
#X msg 650 896 Volume: \$1%;
#X obj 742 836 spigot;
#X floatatom 649 741 5 0 0 0 - - - 0;
#X obj 584 715 loadbang;
#X obj 650 815 - 1;
#X obj 650 839 abs;
#X obj 650 869 spigot;
#X msg 742 860 Volume: \$1% (M);
#X obj 649 764 t b f;
#X obj 596 602 list trim;
#X obj 596 626 route volume;
#X obj 596 578 r \$0-looper-mix-2;
#X obj 649 715 r \$0-mute-2;
#X obj 743 936 s screenLine2;
#X text 406 662 volume/muting display - move into looper-mix and add outlet for send?, f 35;
#X connect 0 0 1 0;
#X connect 1 0 74 0;
#X connect 2 0 141 0;
#X connect 5 0 2 0;
#X connect 6 0 3 0;
#X connect 7 0 4 0;
#X connect 8 0 93 0;
#X connect 8 0 94 0;
#X connect 9 0 101 0;
#X connect 12 0 101 0;
#X connect 13 0 101 0;
#X connect 14 0 101 1;
#X connect 15 0 101 2;
#X connect 16 0 20 0;
#X connect 17 0 25 0;
#X connect 18 0 24 0;
#X connect 19 0 22 0;
#X connect 19 0 26 0;
#X connect 20 0 44 0;
#X connect 22 0 49 0;
#X connect 24 0 23 0;
#X connect 25 0 48 0;
#X connect 26 0 50 0;
#X connect 29 0 30 0;
#X connect 30 0 41 0;
#X connect 30 0 36 0;
#X connect 32 0 31 0;
#X connect 33 0 12 0;
#X connect 33 1 9 0;
#X connect 36 0 42 0;
#X connect 37 0 43 0;
#X connect 38 0 37 0;
#X connect 39 0 40 0;
#X connect 40 0 41 1;
#X connect 41 0 32 0;
#X connect 42 0 31 0;
#X connect 43 0 30 0;
#X connect 43 1 36 1;
#X connect 43 1 39 0;
#X connect 44 0 45 0;
#X connect 44 1 76 0;
#X connect 45 0 17 0;
#X connect 45 0 46 0;
#X connect 45 1 18 0;
#X connect 45 1 47 0;
#X connect 46 0 21 0;
#X connect 47 0 21 0;
#X connect 51 0 90 0;
#X connect 52 0 53 0;
#X connect 53 0 54 0;
#X connect 53 0 56 0;
#X connect 53 0 59 0;
#X connect 53 1 70 0;
#X connect 54 0 55 0;
#X connect 56 0 57 0;
#X connect 58 0 60 0;
#X connect 58 0 68 0;
#X connect 59 0 58 0;
#X connect 60 0 61 0;
#X connect 62 0 63 0;
#X connect 64 0 65 0;
#X connect 66 0 58 0;
#X connect 67 0 110 0;
#X connect 68 0 69 0;
#X connect 70 0 66 0;
#X connect 70 1 64 0;
#X connect 70 2 62 0;
#X connect 70 3 67 0;
#X connect 70 4 73 0;
#X connect 71 0 72 0;
#X connect 73 0 71 0;
#X connect 74 0 75 0;
#X connect 75 0 143 0;
#X connect 76 0 77 0;
#X connect 77 0 19 0;
#X connect 81 0 44 0;
#X connect 84 0 85 0;
#X connect 85 0 86 0;
#X connect 86 0 87 0;
#X connect 86 1 88 0;
#X connect 87 0 89 0;
#X connect 89 0 90 1;
#X connect 90 0 52 0;
#X connect 91 0 33 0;
#X connect 92 0 136 0;
#X connect 93 0 91 0;
#X connect 94 0 92 0;
#X connect 95 0 96 0;
#X connect 95 0 97 0;
#X connect 96 0 102 0;
#X connect 97 0 103 0;
#X connect 100 0 51 0;
#X connect 101 0 10 0;
#X connect 101 0 11 0;
#X connect 101 0 140 1;
#X connect 101 1 140 2;
#X connect 101 2 80 0;
#X connect 102 0 108 0;
#X connect 103 0 108 0;
#X connect 104 0 106 1;
#X connect 105 0 107 1;
#X connect 106 0 117 0;
#X connect 107 0 118 0;
#X connect 108 0 104 0;
#X connect 108 0 105 0;
#X connect 109 0 101 0;
#X connect 111 0 113 0;
#X connect 112 0 113 0;
#X connect 113 0 114 0;
#X connect 114 0 115 0;
#X connect 115 0 121 0;
#X connect 120 0 102 0;
#X connect 121 0 107 0;
#X connect 121 0 106 0;
#X connect 122 0 126 0;
#X connect 122 0 138 1;
#X connect 122 1 127 0;
#X connect 122 1 138 2;
#X connect 125 0 122 0;
#X connect 128 0 122 1;
#X connect 129 0 122 2;
#X connect 132 0 130 0;
#X connect 133 0 131 0;
#X connect 135 0 37 0;
#X connect 137 0 138 0;
#X connect 138 0 123 0;
#X connect 138 1 124 0;
#X connect 139 0 140 0;
#X connect 140 0 27 0;
#X connect 140 1 28 0;
#X connect 141 0 142 0;
#X connect 142 0 145 0;
#X connect 143 0 144 0;
#X connect 145 0 146 0;
#X connect 147 0 148 0;
#X connect 148 0 149 0;
#X connect 149 0 29 0;
#X connect 150 0 151 0;
#X connect 151 0 158 0;
#X connect 151 0 153 0;
#X connect 152 0 165 0;
#X connect 153 0 159 0;
#X connect 154 0 160 0;
#X connect 155 0 154 0;
#X connect 156 0 157 0;
#X connect 157 0 158 1;
#X connect 158 0 152 0;
#X connect 159 0 165 0;
#X connect 160 0 151 0;
#X connect 160 1 153 1;
#X connect 160 1 156 0;
#X connect 161 0 162 0;
#X connect 162 0 150 0;
#X connect 163 0 161 0;
#X connect 164 0 154 0;
