#N canvas 287 44 1072 815 12;
#X obj 434 555 throw~ outL;
#X obj 472 522 throw~ outR;
#X obj 412 454 r~ inL;
#X obj 462 454 r~ inR;
#X obj 45 15 r knob1;
#X floatatom 48 41 5 0 0 0 - - - 0;
#X floatatom 105 37 5 0 0 0 - - - 0;
#X floatatom 165 37 5 0 0 0 - - - 0;
#X floatatom 225 37 5 0 0 0 - - - 0;
#X obj 105 15 r knob2;
#X obj 165 15 r knob3;
#X obj 225 15 r knob4;
#X obj 368 15 r notes;
#X obj 248 265 r aux;
#X obj 291 264 r fs;
#X text 429 16 notes 60-83;
#X obj 828 181 tgl 15 0 empty empty empty 17 7 0 10 #fcfcfc #000000 #000000 0 1;
#X obj 867 29 r notes;
#X obj 867 51 unpack f f;
#X floatatom 867 95 5 0 0 0 - - - 0;
#X obj 828 115 spigot;
#X obj 828 137 route 100 0;
#X obj 828 160 bng 15 250 50 0 empty empty empty 17 7 0 10 #fcfcfc #000000 #000000;
#X obj 793 79 pipe 1;
#X obj 828 201 == 1;
#X floatatom 828 228 5 0 0 0 - - - 0;
#N canvas 0 22 450 278 (subpatch) 0;
#X array bufL 441000 float 2;
#A color 0;
#A width 2;
#X coords 0 1 441000 -1 200 140 1 0 0;
#X restore 212 107 graph;
#X obj 309 512 tabwrite~ bufL;
#N canvas 0 22 450 278 (subpatch) 0;
#X array bufR 441000 float 2;
#A color 0;
#A width 2;
#X coords 0 1 441000 -1 200 140 1 0 0;
#X restore 423 106 graph;
#X obj 309 546 tabwrite~ bufR;
#X obj 27 346 array size bufL;
#X obj 87 371 array size bufR;
#X floatatom 38 241 13 0 0 0 - - - 0;
#X floatatom 246 299 5 0 0 0 - - - 0;
#X obj 248 327 sel 1;
#X obj 36 206 * 44100;
#X floatatom 30 182 5 0 0 0 - - - 0;
#X msg 249 413 start;
#X msg 311 414 stop;
#X obj 249 357 tgl 20 0 empty empty empty 0 -10 0 12 #fcfcfc #000000 #000000 0 1;
#X obj 249 382 sel 1;
#X obj 867 73 == 83;
#X obj 640 406 tabread4~ bufL;
#X obj 38 265 s bufLength;
#X obj 26 319 r bufLength;
#X obj 715 135 r bufLength;
#X obj 694 288 phasor~;
#X obj 694 321 *~;
#X obj 635 461 throw~ outL;
#X floatatom 879 438 20 0 0 0 - - - 0;
#X obj 877 414 snapshot~;
#X obj 878 389 metro 100;
#X floatatom 725 226 13 0 0 0 - - - 0;
#X obj 692 191 expr $f1/44100;
#X obj 694 251 expr 1/$f1;
#X floatatom 789 283 5 0 0 0 - - - 0;
#X obj 756 418 tabread4~ bufR;
#X obj 752 474 throw~ outR;
#X obj 684 90 * 44100;
#X floatatom 678 66 5 0 0 0 - - - 0;
#X floatatom 902 264 5 0 0 0 - - - 0;
#X obj 877 364 loadbang;
#X obj 694 346 +~;
#X obj 902 292 *~ 44100;
#X obj 901 317 lop~ 10;
#X text 688 40 length override;
#X text 951 264 start offset;
#X text 334 311 TODO implement overdub on record "stop" then actual stop on second "stop" need to track length from start to stop and set loop length overdub into table seems tricky, f 32;
#X connect 2 0 0 0;
#X connect 2 0 27 0;
#X connect 3 0 1 0;
#X connect 3 0 29 0;
#X connect 4 0 5 0;
#X connect 9 0 6 0;
#X connect 10 0 7 0;
#X connect 11 0 8 0;
#X connect 13 0 33 0;
#X connect 14 0 33 0;
#X connect 16 0 24 0;
#X connect 17 0 18 0;
#X connect 18 0 41 0;
#X connect 18 1 23 0;
#X connect 19 0 20 1;
#X connect 20 0 21 0;
#X connect 21 0 22 0;
#X connect 22 0 16 0;
#X connect 23 0 20 0;
#X connect 24 0 25 0;
#X connect 32 0 43 0;
#X connect 33 0 34 0;
#X connect 34 0 39 0;
#X connect 35 0 32 0;
#X connect 36 0 35 0;
#X connect 37 0 27 0;
#X connect 37 0 29 0;
#X connect 38 0 29 0;
#X connect 38 0 27 0;
#X connect 39 0 40 0;
#X connect 40 0 37 0;
#X connect 40 1 38 0;
#X connect 41 0 19 0;
#X connect 42 0 48 0;
#X connect 44 0 30 0;
#X connect 44 0 31 0;
#X connect 45 0 53 0;
#X connect 45 0 47 1;
#X connect 46 0 47 0;
#X connect 47 0 62 0;
#X connect 50 0 49 0;
#X connect 51 0 50 0;
#X connect 53 0 52 0;
#X connect 53 0 54 0;
#X connect 54 0 46 0;
#X connect 54 0 55 0;
#X connect 56 0 57 0;
#X connect 58 0 53 0;
#X connect 58 0 47 1;
#X connect 59 0 58 0;
#X connect 60 0 63 0;
#X connect 61 0 51 0;
#X connect 62 0 42 0;
#X connect 62 0 56 0;
#X connect 62 0 50 0;
#X connect 63 0 64 0;
#X connect 64 0 62 1;
