#N canvas 900 112 961 865 12;
#X obj 33 16 r knob1;
#X floatatom 33 38 5 0 0 0 - - - 0;
#X floatatom 69 672 5 0 0 0 - - - 0;
#X floatatom 129 672 5 0 0 0 - - - 0;
#X floatatom 189 672 5 0 0 0 - - - 0;
#X obj 69 650 r knob2;
#X obj 129 650 r knob3;
#X obj 189 650 r knob4;
#X obj 33 97 r aux;
#X obj 76 97 r fs;
#X obj 177 35 r notes;
#X floatatom 33 126 5 0 0 0 - - - 0;
#X obj 33 154 sel 1;
#X msg 33 183 start;
#X obj 164 257 throw~ outL;
#X obj 260 257 throw~ outR;
#X obj 319 331 vumeter;
#X obj 383 331 vumeter;
#X msg 33 212 stop;
#X msg 33 241 clear;
#X obj 164 229 r~ inL;
#X obj 260 229 r~ inR;
#X text 238 34 notes 60-83 on Organelle;
#X obj 156 300 looper~ 60;
#X obj 472 288 loadbang;
#X obj 484 393 bng 19 250 50 0 empty empty empty 0 -10 0 12 #fcfcfc #000000 #000000;
#X obj 582 390 bng 19 250 50 0 empty empty empty 0 -10 0 12 #fcfcfc #000000 #000000;
#X obj 663 364 bng 19 250 50 0 empty empty empty 0 -10 0 12 #fcfcfc #000000 #000000;
#X msg 472 310 symbol stopped;
#X obj 472 521 s screenLine5;
#X msg 663 394 Stopped;
#X obj 582 437 s led;
#X msg 582 413 1;
#X msg 484 416 2;
#X msg 771 394 0;
#X obj 149 384 *~;
#X obj 125 500 throw~ outL;
#X obj 188 384 *~, f 2;
#X obj 211 500 throw~ outR;
#X obj 471 609 * 100;
#X obj 471 631 i;
#X obj 472 771 s screenLine1;
#X msg 379 731 Volume: \$1%;
#X obj 177 86 ktog 61;
#X obj 177 110 route 1;
#X msg 43 315 \$1 20;
#X obj 43 337 line~;
#X text 184 66 play/pause;
#X obj 288 86 ktog 63;
#X text 297 66 mute;
#X obj 288 110 s \$0-mute;
#X obj 223 335 r \$0-mute;
#X obj 223 359 - 1;
#X obj 223 383 abs;
#X msg 223 407 \$1 20;
#X obj 223 429 line~;
#X obj 33 61 s \$0-volume;
#X obj 43 293 r \$0-volume;
#X obj 471 587 r \$0-volume;
#X obj 378 550 r \$0-mute;
#X obj 471 671 spigot;
#X floatatom 378 576 5 0 0 0 - - - 0;
#X obj 313 550 loadbang;
#X obj 379 650 - 1;
#X obj 379 674 abs;
#X obj 379 704 spigot;
#X msg 471 695 Volume: \$1% (M);
#X obj 378 599 t b f;
#X obj 149 466 *~;
#X obj 188 466 *~;
#X obj 253 359 loadbang;
#X msg 253 383 1;
#X obj 472 332 route list symbol;
#X obj 472 364 route playing recording;
#X obj 472 461 makefilename Playing\ -%.1fs;
#X obj 551 487 makefilename Recording\ -%.1fs;
#X obj 484 439 s led;
#X obj 663 418 s screenLine5;
#X obj 771 418 s led;
#X obj 460 35 ktrig 66;
#X text 468 14 clear;
#X obj 460 59 v \$0-clear-state;
#X obj 460 83 sel 0 1;
#X msg 483 161 clear CONFIRM?;
#X obj 483 185 s screenLine5;
#X msg 490 113 1;
#X obj 490 137 v \$0-clear-state;
#X obj 460 208 delay 4000;
#X obj 460 185 bng 19 250 50 0 empty empty empty 0 -10 0 12 #fcfcfc #000000 #000000;
#X msg 460 232 0;
#X obj 460 256 v \$0-clear-state;
#X msg 674 130 clearing!;
#X obj 674 154 s screenLine5;
#X msg 653 204 0;
#X obj 653 228 v \$0-clear-state;
#X msg 634 130 stop;
#X obj 110 205 r \$0-looper-msg;
#X msg 714 180 clear;
#X obj 714 204 s \$0-looper-msg;
#X msg 579 232 Stopped;
#X obj 579 256 s screenLine5;
#X obj 634 98 t b b b b b;
#X msg 789 148 Stopped;
#X obj 789 172 s screenLine5;
#X obj 789 124 delay 1000;
#X connect 0 0 1 0;
#X connect 1 0 56 0;
#X connect 5 0 2 0;
#X connect 6 0 3 0;
#X connect 7 0 4 0;
#X connect 8 0 11 0;
#X connect 9 0 11 0;
#X connect 10 0 43 0;
#X connect 10 0 48 0;
#X connect 10 0 79 0;
#X connect 11 0 12 0;
#X connect 12 0 13 0;
#X connect 13 0 23 0;
#X connect 18 0 23 0;
#X connect 19 0 23 0;
#X connect 20 0 23 0;
#X connect 20 0 14 0;
#X connect 21 0 23 1;
#X connect 21 0 15 0;
#X connect 23 0 16 0;
#X connect 23 0 17 0;
#X connect 23 0 35 0;
#X connect 23 1 37 0;
#X connect 23 2 72 0;
#X connect 24 0 28 0;
#X connect 25 0 33 0;
#X connect 26 0 32 0;
#X connect 27 0 30 0;
#X connect 27 0 34 0;
#X connect 28 0 72 0;
#X connect 30 0 77 0;
#X connect 32 0 31 0;
#X connect 33 0 76 0;
#X connect 34 0 78 0;
#X connect 35 0 68 0;
#X connect 37 0 69 0;
#X connect 39 0 40 0;
#X connect 40 0 65 0;
#X connect 40 0 60 0;
#X connect 42 0 41 0;
#X connect 43 0 44 0;
#X connect 44 0 18 0;
#X connect 44 1 13 0;
#X connect 45 0 46 0;
#X connect 46 0 35 1;
#X connect 46 0 37 1;
#X connect 48 0 50 0;
#X connect 51 0 52 0;
#X connect 52 0 53 0;
#X connect 53 0 54 0;
#X connect 54 0 55 0;
#X connect 55 0 68 1;
#X connect 55 0 69 1;
#X connect 57 0 45 0;
#X connect 58 0 39 0;
#X connect 59 0 61 0;
#X connect 60 0 66 0;
#X connect 61 0 67 0;
#X connect 62 0 61 0;
#X connect 63 0 64 0;
#X connect 64 0 65 1;
#X connect 65 0 42 0;
#X connect 66 0 41 0;
#X connect 67 0 40 0;
#X connect 67 1 60 1;
#X connect 67 1 63 0;
#X connect 68 0 36 0;
#X connect 69 0 38 0;
#X connect 70 0 71 0;
#X connect 71 0 54 0;
#X connect 72 0 73 0;
#X connect 72 1 27 0;
#X connect 73 0 25 0;
#X connect 73 0 74 0;
#X connect 73 1 26 0;
#X connect 73 1 75 0;
#X connect 74 0 29 0;
#X connect 75 0 29 0;
#X connect 79 0 81 0;
#X connect 81 0 82 0;
#X connect 82 0 83 0;
#X connect 82 0 85 0;
#X connect 82 0 88 0;
#X connect 82 1 101 0;
#X connect 83 0 84 0;
#X connect 85 0 86 0;
#X connect 87 0 89 0;
#X connect 87 0 99 0;
#X connect 88 0 87 0;
#X connect 89 0 90 0;
#X connect 91 0 92 0;
#X connect 93 0 94 0;
#X connect 95 0 87 0;
#X connect 96 0 23 0;
#X connect 97 0 98 0;
#X connect 99 0 100 0;
#X connect 101 0 95 0;
#X connect 101 1 93 0;
#X connect 101 2 91 0;
#X connect 101 3 97 0;
#X connect 101 4 104 0;
#X connect 102 0 103 0;
#X connect 104 0 102 0;
