#N canvas 506 497 243 190 12;
#X floatatom 15 99 13 0 0 0 - - - 0;
#X obj 16 68 snapshot~;
#X obj 90 38 metro 100;
#X obj 89 13 loadbang;
#X obj 16 30 inlet~;
#X connect 1 0 0 0;
#X connect 2 0 1 0;
#X connect 3 0 2 0;
#X connect 4 0 1 0;
#X coords 0 -1 1 1 100 26 2 12 95;
