#N canvas 90 117 299 201 12;
#X obj 21 21 inlet;
#X obj 112 21 inlet;
#X obj 60 109 == 1;
#X obj 245 110 == 2;
#X obj 21 133 spigot;
#X obj 206 134 spigot;
#X obj 21 45 t a a;
#X obj 21 157 outlet;
#X obj 206 158 outlet;
#X obj 112 48 t f f;
#X connect 0 0 6 0;
#X connect 1 0 9 0;
#X connect 2 0 4 1;
#X connect 3 0 5 1;
#X connect 4 0 7 0;
#X connect 5 0 8 0;
#X connect 6 0 4 0;
#X connect 6 1 5 0;
#X connect 9 0 2 0;
#X connect 9 1 3 0;
