#N canvas 64 88 450 300 12;
#X obj 21 21 inlet;
#X obj 112 21 inlet;
#X obj 60 109 == 1;
#X obj 171 111 == 2;
#X obj 21 133 spigot;
#X obj 132 135 spigot;
#X obj 21 157 outlet;
#X obj 132 159 outlet;
#X obj 227 139 spigot;
#X obj 227 163 outlet;
#X obj 266 115 == 3;
#X obj 112 48 t f f f;
#X obj 21 45 t a a a;
#X connect 0 0 12 0;
#X connect 1 0 11 0;
#X connect 2 0 4 1;
#X connect 3 0 5 1;
#X connect 4 0 6 0;
#X connect 5 0 7 0;
#X connect 8 0 9 0;
#X connect 10 0 8 1;
#X connect 11 0 2 0;
#X connect 11 1 3 0;
#X connect 11 2 10 0;
#X connect 12 0 4 0;
#X connect 12 1 5 0;
#X connect 12 2 8 0;
