#N canvas 325 363 394 288 12;
#X msg 67 199 speed \$1;
#X obj 67 142 klatch 1;
#X obj 163 27 r activeLooper;
#X obj 67 76 spigot;
#X obj 186 225 s looper-speed-status;
#X obj 67 48 inlet;
#X obj 163 52 == \$1;
#X obj 186 174 v looper-speed-\$1;
#X obj 45 225 s looper-msg-\$1;
#X msg 186 200 speed\\\ \$1;
#X obj 186 139 del 1;
#X obj 163 85 sel 0 1;
#X msg 79 113 symbol unlatch;
#X connect 0 0 8 0;
#X connect 1 0 0 0;
#X connect 1 0 7 0;
#X connect 1 0 9 0;
#X connect 2 0 6 0;
#X connect 3 0 1 0;
#X connect 5 0 3 0;
#X connect 6 0 3 1;
#X connect 6 0 11 0;
#X connect 7 0 9 0;
#X connect 9 0 4 0;
#X connect 10 0 7 0;
#X connect 11 0 12 0;
#X connect 11 1 10 0;
#X connect 12 0 1 0;
