#N canvas 471 525 1343 501 12;
#X text 12 7 Organelle emulation for testing;
#X obj 23 114 adc~ 1 2;
#X obj 53 283 output~;
#X obj 24 257 catch~ outL;
#X obj 111 257 catch~ outR;
#X obj 32 195 s~ inL;
#X obj 82 195 s~ inR;
#X obj 318 29 loadbang;
#X obj 318 125 soundfiler;
#X floatatom 318 149 10 0 0 0 - - - 0;
#N canvas 0 22 450 278 (subpatch) 0;
#X array \$0-sampleL 547520 float 2;
#A color 0;
#A width 2;
#X coords 0 1 547520 -1 200 140 1;
#X restore 317 195 graph;
#X obj 318 53 bng 19 250 50 0 empty empty empty 0 -10 0 12 #fcfcfc #000000 #000000;
#X obj 318 77 \$0;
#N canvas 0 22 450 278 (subpatch) 0;
#X array \$0-sampleR 547520 float 2;
#A color 0;
#A width 2;
#X coords 0 1 547520 -1 200 140 1;
#X restore 527 195 graph;
#X msg 318 101 read -resize test.wav \$1-sampleL \$1-sampleR;
#X obj 174 125 tabplay~ \$0-sampleL;
#X obj 174 149 tabplay~ \$0-sampleR;
#X obj 174 98 bng 19 250 50 0 empty empty empty 0 -10 0 12 #fcfcfc #000000 #000000;
#X text 318 7 play sample into inputs;
#X text 23 92 Audio I/O;
#X msg 220 98 stop;
#X obj 682 81 osc~;
#X obj 802 84 hsl 162 19 0 1 0 0 empty empty empty -2 -10 0 12 #fcfcfc #000000 #000000 0 1;
#X floatatom 799 107 15 0 0 0 - - - 0;
#X obj 682 136 *~;
#X obj 734 106 osc~;
#X obj 735 137 *~;
#X obj 684 33 hsl 162 19 100 2000 0 0 empty empty empty -2 -10 0 12 #fcfcfc #000000 #000000 0 1;
#X floatatom 681 57 5 0 0 0 - - - 0;
#X obj 737 59 hsl 162 19 100 2000 0 0 empty empty empty -2 -10 0 12 #fcfcfc #000000 #000000 0 1;
#X floatatom 734 83 5 0 0 0 - - - 0;
#X obj 808 271 looper~;
#X obj 808 295 throw~ outL;
#X obj 893 295 throw~ outR;
#X obj 978 292 vumeter;
#X obj 1046 293 vumeter;
#X msg 912 185 start;
#X msg 912 210 stop;
#X msg 912 234 clear;
#X obj 54 230 r~ inL;
#X obj 116 230 r~ inR;
#X obj 746 242 r~ inL;
#X obj 795 242 r~ inR;
#X text 681 11 sine nonsense;
#X connect 1 0 5 0;
#X connect 1 1 6 0;
#X connect 3 0 2 0;
#X connect 4 0 2 1;
#X connect 7 0 11 0;
#X connect 8 0 9 0;
#X connect 11 0 12 0;
#X connect 12 0 14 0;
#X connect 14 0 8 0;
#X connect 15 0 5 0;
#X connect 16 0 6 0;
#X connect 17 0 15 0;
#X connect 17 0 16 0;
#X connect 20 0 16 0;
#X connect 20 0 15 0;
#X connect 21 0 24 0;
#X connect 22 0 23 0;
#X connect 23 0 24 1;
#X connect 23 0 26 1;
#X connect 24 0 5 0;
#X connect 25 0 26 0;
#X connect 26 0 6 0;
#X connect 27 0 28 0;
#X connect 28 0 21 0;
#X connect 29 0 30 0;
#X connect 30 0 25 0;
#X connect 31 0 32 0;
#X connect 31 0 34 0;
#X connect 31 0 35 0;
#X connect 31 1 33 0;
#X connect 36 0 31 0;
#X connect 37 0 31 0;
#X connect 38 0 31 0;
#X connect 39 0 2 0;
#X connect 40 0 2 1;
#X connect 41 0 31 0;
#X connect 42 0 31 1;
