#N canvas 471 525 1296 435 12;
#X text 12 7 Organelle emulation for testing;
#X obj 23 114 adc~ 1 2;
#X obj 53 283 output~;
#X obj 24 257 catch~ outL;
#X obj 111 257 catch~ outR;
#X obj 32 195 s~ inL;
#X obj 82 195 s~ inR;
#X obj 318 29 loadbang;
#X obj 318 125 soundfiler;
#X floatatom 318 149 10 0 0 0 - - - 0;
#N canvas 0 22 450 278 (subpatch) 0;
#X array \$0-sampleL 547520 float 2;
#A color 0;
#A width 2;
#X coords 0 1 547520 -1 200 140 1;
#X restore 317 195 graph;
#X obj 318 53 bng 19 250 50 0 empty empty empty 0 -10 0 12 #fcfcfc #000000 #000000;
#X obj 318 77 \$0;
#N canvas 0 22 450 278 (subpatch) 0;
#X array \$0-sampleR 547520 float 2;
#A color 0;
#A width 2;
#X coords 0 1 547520 -1 200 140 1;
#X restore 527 195 graph;
#X msg 318 101 read -resize test.wav \$1-sampleL \$1-sampleR;
#X obj 174 125 tabplay~ \$0-sampleL;
#X obj 174 149 tabplay~ \$0-sampleR;
#X obj 174 98 bng 19 250 50 0 empty empty empty 0 -10 0 12 #fcfcfc #000000 #000000;
#X text 318 7 play sample into inputs;
#X text 23 92 Audio I/O;
#X text 760 19 controls;
#X obj 772 139 s aux;
#X msg 220 98 stop;
#X obj 772 41 bng 19 250 50 0 empty empty empty 0 -10 0 12 #ffffff #000000 #000000;
#X obj 772 65 t b b;
#X msg 831 88 1;
#X obj 772 89 del 50;
#X msg 772 113 0;
#X obj 911 101 osc~;
#X obj 1049 78 hsl 162 19 0 1 0 0 empty empty empty -2 -10 0 12 #fcfcfc #000000 #000000 0 1;
#X floatatom 1047 110 15 0 0 0 - - - 0;
#X obj 932 212 *~;
#X obj 964 102 osc~;
#X obj 985 213 *~;
#X obj 909 18 hsl 162 19 100 2000 0 0 empty empty empty -2 -10 0 12 #fcfcfc #000000 #000000 0 1;
#X floatatom 906 42 5 0 0 0 - - - 0;
#X obj 968 47 hsl 162 19 100 2000 0 0 empty empty empty -2 -10 0 12 #fcfcfc #000000 #000000 0 1;
#X floatatom 965 71 5 0 0 0 - - - 0;
#X obj 807 299 looper~;
#X obj 807 323 throw~ outL;
#X obj 892 323 throw~ outR;
#X msg 813 228 record 0;
#X msg 840 257 setlength 5000;
#X connect 1 0 5 0;
#X connect 1 1 6 0;
#X connect 3 0 2 0;
#X connect 4 0 2 1;
#X connect 7 0 11 0;
#X connect 8 0 9 0;
#X connect 11 0 12 0;
#X connect 12 0 14 0;
#X connect 14 0 8 0;
#X connect 15 0 5 0;
#X connect 15 0 38 0;
#X connect 16 0 6 0;
#X connect 16 0 38 1;
#X connect 17 0 15 0;
#X connect 17 0 16 0;
#X connect 22 0 16 0;
#X connect 22 0 15 0;
#X connect 23 0 24 0;
#X connect 24 0 26 0;
#X connect 24 1 25 0;
#X connect 25 0 21 0;
#X connect 26 0 27 0;
#X connect 27 0 21 0;
#X connect 28 0 31 0;
#X connect 29 0 30 0;
#X connect 30 0 31 1;
#X connect 30 0 33 1;
#X connect 31 0 5 0;
#X connect 32 0 33 0;
#X connect 33 0 6 0;
#X connect 34 0 35 0;
#X connect 35 0 28 0;
#X connect 36 0 37 0;
#X connect 37 0 32 0;
#X connect 38 0 39 0;
#X connect 38 1 40 0;
#X connect 41 0 38 0;
#X connect 42 0 38 0;
